<svg width="113" height="26" viewBox="0 0 113 26" fill="none" xmlns="http://www.w3.org/2000/svg">
<rect width="113" height="26" rx="12" fill="#5865F2"/>
<path d="M21.8793 6C21.6981 6.32044 21.5354 6.65193 21.3876 6.99079C19.9826 6.78085 18.5518 6.78085 17.1432 6.99079C16.999 6.65193 16.8326 6.32044 16.6514 6C15.3315 6.22469 14.0449 6.61879 12.8248 7.17495C10.4068 10.744 9.7524 14.221 10.0778 17.6501C11.4938 18.6924 13.0799 19.488 14.7695 19.9963C15.1503 19.488 15.4868 18.9466 15.7752 18.3831C15.228 18.1805 14.6993 17.9263 14.1928 17.6317C14.3259 17.5359 14.4553 17.4365 14.581 17.3407C17.5498 18.733 20.9883 18.733 23.9608 17.3407C24.0865 17.4438 24.2159 17.5433 24.349 17.6317C23.8425 17.93 23.3138 18.1805 22.7629 18.3867C23.0513 18.9503 23.3878 19.4917 23.7686 20C25.4582 19.4917 27.0443 18.6998 28.4604 17.6575C28.8448 13.6796 27.8023 10.232 25.7058 7.17864C24.4895 6.62247 23.2029 6.22836 21.883 6.00736L21.8793 6ZM16.1893 15.5396C15.2761 15.5396 14.5181 14.7145 14.5181 13.6943C14.5181 12.674 15.2465 11.8453 16.1856 11.8453C17.1247 11.8453 17.8715 12.6777 17.8567 13.6943C17.8419 14.7109 17.121 15.5396 16.1893 15.5396ZM22.3488 15.5396C21.4319 15.5396 20.6814 14.7145 20.6814 13.6943C20.6814 12.674 21.4097 11.8453 22.3488 11.8453C23.2879 11.8453 24.0311 12.6777 24.0163 13.6943C24.0015 14.7109 23.2805 15.5396 22.3488 15.5396ZM34.7159 7.94168H40.2341C41.5641 7.94168 42.6893 8.14842 43.6097 8.5619C44.4571 8.9168 45.1766 9.51918 45.6735 10.2896C46.1386 11.0507 46.3769 11.9279 46.3607 12.8188C46.3709 13.7138 46.1233 14.593 45.6472 15.352C45.1161 16.1538 44.3566 16.7793 43.4662 17.1482C42.4905 17.5912 41.2811 17.812 39.8379 17.8107H34.7159L34.7159 7.94168ZM39.7813 15.2996C40.6774 15.2996 41.366 15.0768 41.8471 14.6311C42.3406 14.1543 42.5718 13.5049 42.5687 12.8047C42.5714 12.1564 42.3667 11.5517 41.9259 11.0931C41.4947 10.6662 40.8459 10.4521 39.9794 10.4507H38.2532V15.2996H39.7813ZM54.6239 17.7946C53.8959 17.6129 53.1994 17.323 52.5581 16.9348V14.5949C53.118 15.0006 53.7485 15.2996 54.4177 15.4769C55.1497 15.6994 55.9102 15.8153 56.6755 15.8212C56.9396 15.8352 57.2035 15.7898 57.4476 15.6883C57.6215 15.5997 57.7084 15.4869 57.7084 15.3701C57.7121 15.2382 57.6609 15.1107 57.5669 15.0177C57.4054 14.894 57.2159 14.8118 57.0151 14.7781L55.3172 14.3975C54.3442 14.172 53.6536 13.8599 53.2453 13.4612C52.8309 13.0448 52.6109 12.4742 52.6389 11.8885C52.6321 11.3635 52.8241 10.8552 53.1766 10.4648C53.5945 10.0244 54.1216 9.70142 54.7047 9.52848C55.4551 9.29351 56.2388 9.18131 57.0252 9.19623C57.7593 9.18936 58.4914 9.2746 59.2041 9.44995C59.7799 9.58584 60.3327 9.80425 60.8455 10.0984V12.3134C60.3646 12.0355 59.8477 11.8248 59.3093 11.6871C58.7259 11.5313 58.1244 11.4528 57.5204 11.4536C56.6337 11.4536 56.1904 11.6039 56.1904 11.9046C56.1873 12.0415 56.267 12.1669 56.3925 12.2228C56.6348 12.3254 56.8886 12.3984 57.1485 12.4403L58.5634 12.694C59.4824 12.8551 60.1676 13.137 60.6191 13.5397C61.0705 13.9425 61.2969 14.5318 61.2982 15.3077C61.3128 16.138 60.8843 16.9137 60.1723 17.3456C59.4272 17.8436 58.3633 18.092 56.9807 18.0906C56.1857 18.0919 55.3937 17.9924 54.6239 17.7946ZM64.6415 17.4986C63.885 17.1523 63.2475 16.5921 62.8081 15.8876C62.3984 15.1968 62.1885 14.4065 62.2018 13.6041C62.1895 12.8023 62.4107 12.0141 62.8385 11.3347C63.2944 10.6413 63.9435 10.0955 64.7062 9.76406C65.6335 9.36153 66.638 9.16633 67.6492 9.19217C69.0641 9.19217 70.2385 9.48819 71.1723 10.0802V12.6637C70.8171 12.4258 70.429 12.2406 70.0202 12.114C69.5626 11.9701 69.0851 11.8987 68.6053 11.9026C67.728 11.9026 67.0415 12.0623 66.5456 12.3818C65.8486 12.7693 65.5989 13.6464 65.9879 14.3407C66.1146 14.5669 66.3003 14.7549 66.5253 14.8848C67.0064 15.2084 67.7044 15.3701 68.6194 15.3701C69.0917 15.3712 69.5616 15.3034 70.0141 15.1687C70.4269 15.0508 70.8234 14.8824 71.1946 14.6673V17.1643C70.1008 17.7996 68.8523 18.1215 67.5865 18.0946C66.5721 18.1222 65.5647 17.9183 64.6415 17.4986ZM74.6955 17.4986C73.9306 17.1506 73.2817 16.5916 72.8258 15.8876C72.3961 15.1985 72.1731 14.4013 72.183 13.59C72.1693 12.7884 72.3929 12.0005 72.8258 11.3247C73.2841 10.6386 73.9302 10.0978 74.6874 9.76607C76.5475 9.01426 78.6285 9.01426 80.4886 9.76607C81.2429 10.0952 81.8863 10.6334 82.3422 11.3166C82.7722 11.9949 82.9935 12.7838 82.9789 13.586C82.9889 14.3964 82.7681 15.1931 82.3422 15.8836C81.8912 16.588 81.2454 17.1475 80.4826 17.4946C78.6349 18.2839 76.5432 18.2839 74.6955 17.4946L74.6955 17.4986ZM78.9949 14.9976C79.3482 14.6342 79.5354 14.1417 79.5123 13.6364C79.537 13.1355 79.3492 12.6474 78.9949 12.2912C78.6107 11.9403 78.1002 11.7594 77.5799 11.7898C77.0601 11.7626 76.5508 11.9431 76.165 12.2912C75.812 12.6481 75.6251 13.1359 75.6496 13.6364C75.6267 14.1413 75.8131 14.6335 76.165 14.9976C76.5472 15.3529 77.0579 15.5383 77.5799 15.5111C78.1024 15.5414 78.6143 15.3556 78.9949 14.9976ZM91.4825 9.71372V12.7624C91.0601 12.5113 90.5732 12.3888 90.0818 12.41C89.3278 12.41 88.7457 12.6396 88.3414 13.0947C87.9371 13.5498 87.735 14.2566 87.735 15.2151V17.8087H84.2685V9.56269H87.6643V12.1805C87.8529 11.222 88.1575 10.5152 88.5779 10.0601C88.9904 9.60717 89.5896 9.36922 90.1949 9.37543C90.6435 9.37448 91.0947 9.48053 91.4825 9.71372ZM103 7.65977V17.8087H99.5334V15.9561C99.272 16.6156 98.8024 17.1726 98.1953 17.5429C97.5252 17.9232 96.763 18.1127 95.9921 18.0906C95.2666 18.1074 94.5525 17.9091 93.9405 17.5207C93.3477 17.1371 92.8756 16.5948 92.5781 15.9561C92.2535 15.251 92.0919 14.4824 92.1051 13.7068C92.0823 12.9027 92.2542 12.1049 92.6064 11.381C92.9301 10.718 93.4353 10.1595 94.0638 9.7701C94.7098 9.3802 95.4531 9.17988 96.2084 9.19217C97.8578 9.19217 98.9661 9.90636 99.5334 11.3347V7.65977H103ZM99.0241 14.9493C99.3813 14.599 99.5742 14.1152 99.5557 13.6162C99.5708 13.132 99.3774 12.6644 99.0241 12.3315C98.2065 11.6684 97.034 11.6684 96.2164 12.3315C95.8641 12.672 95.6738 13.1457 95.6929 13.6343C95.675 14.1275 95.8674 14.6052 96.2225 14.9493C96.5977 15.2967 97.0975 15.4789 97.6091 15.4547C98.1299 15.4834 98.6402 15.3011 99.0241 14.9493ZM49.2835 7.34766C50.238 7.34766 51.0118 8.04005 51.0118 8.89416C51.0118 9.74828 50.238 10.4407 49.2835 10.4407C48.3291 10.4407 47.5553 9.74828 47.5553 8.89416C47.5553 8.04005 48.3291 7.34766 49.2835 7.34766ZM47.5533 11.5059C48.6592 11.969 49.9058 11.969 51.0118 11.5059V17.853H47.5533V11.5059Z" fill="white"/>
</svg>
