<svg width="93" height="26" viewBox="0 0 93 26" fill="none" xmlns="http://www.w3.org/2000/svg">
<rect width="93" height="26" rx="12" fill="#3097D1"/>
<g clip-path="url(#clip0_2019_46)">
<mask id="mask0_2019_46" style="mask-type:luminance" maskUnits="userSpaceOnUse" x="10" y="6" width="73" height="14">
<path d="M83 6H10V20H83V6Z" fill="white"/>
</mask>
<g mask="url(#mask0_2019_46)">
<path d="M22.941 8.00146C23.0389 7.99916 23.0389 7.99916 23.1388 7.99683C23.7473 7.9985 24.2466 8.20515 24.6865 8.62498C24.7299 8.66548 24.7733 8.70598 24.818 8.7477C25.0978 9.03869 25.0978 9.03869 25.0978 9.19683C25.1343 9.19683 25.1708 9.19683 25.2084 9.19683C25.2238 9.14226 25.2238 9.14226 25.2395 9.08659C25.4795 8.58742 25.9064 8.30638 26.4011 8.0865C26.683 8.01648 26.9582 8.02125 27.2477 8.02212C27.3058 8.02124 27.3639 8.02035 27.4237 8.01943C27.7779 8.01921 28.0381 8.05838 28.3606 8.2047C28.4163 8.22867 28.4163 8.22867 28.473 8.25312C29.1211 8.53659 29.5518 9.01431 29.8158 9.65844C29.9027 9.88855 29.9714 10.0834 29.9711 10.3309C29.9712 10.4084 29.9712 10.4084 29.9713 10.4876C29.9711 10.5442 29.9709 10.6008 29.9707 10.6591C29.9707 10.7188 29.9707 10.7785 29.9707 10.84C29.9707 11.0377 29.9703 11.2355 29.9698 11.4332C29.9697 11.5701 29.9697 11.7071 29.9696 11.844C29.9694 12.1678 29.969 12.4917 29.9684 12.8155C29.9677 13.2204 29.9674 13.6252 29.9671 14.0301C29.9665 14.7523 29.9656 15.4746 29.9644 16.1968C29.2892 16.1968 28.6139 16.1968 27.9182 16.1968C27.9183 16.035 27.9183 15.8732 27.9184 15.7064C27.9184 15.1698 27.9165 14.6333 27.9138 14.0967C27.9122 13.7716 27.9112 13.4465 27.9116 13.1214C27.9119 12.8072 27.9107 12.4931 27.9083 12.179C27.9077 12.0595 27.9077 11.9401 27.9082 11.8206C27.9274 10.8942 27.9274 10.8942 27.5311 10.0787C27.2223 9.80852 26.9268 9.69368 26.5138 9.71981C26.1308 9.79478 25.898 10.0281 25.6687 10.3293C25.4648 10.7059 25.405 11.0692 25.4057 11.4925C25.4051 11.5431 25.4045 11.5937 25.404 11.6459C25.4023 11.8114 25.4018 11.9769 25.4013 12.1424C25.4004 12.2579 25.3994 12.3733 25.3983 12.4888C25.3957 12.7913 25.394 13.0939 25.3926 13.3964C25.3909 13.7057 25.3883 14.0149 25.3858 14.3242C25.3811 14.93 25.3774 15.5359 25.3743 16.1417C24.6808 16.1417 23.9873 16.1417 23.2728 16.1417C23.272 15.979 23.2712 15.8163 23.2703 15.6487C23.2675 15.1101 23.2639 14.5716 23.2597 14.033C23.2573 13.7066 23.2551 13.3802 23.2536 13.0538C23.2522 12.7386 23.2499 12.4234 23.2472 12.1082C23.2462 11.9881 23.2456 11.8681 23.2452 11.748C23.2447 11.5794 23.2432 11.4108 23.2414 11.2422C23.2415 11.193 23.2415 11.1438 23.2416 11.093C23.2365 10.7517 23.2074 10.3675 22.9732 10.0992C22.7068 9.86924 22.495 9.84961 22.1529 9.84791C22.0819 9.84713 22.0109 9.84635 21.9377 9.84554C21.59 9.86624 21.3045 9.93283 21.0606 10.189C20.8573 10.5359 20.807 10.8458 20.8092 11.2422C20.8087 11.2955 20.8081 11.3488 20.8075 11.4037C20.8059 11.5782 20.8058 11.7526 20.8057 11.9271C20.8049 12.0487 20.804 12.1704 20.803 12.292C20.8006 12.6109 20.7994 12.9297 20.7986 13.2486C20.7975 13.5745 20.7952 13.9004 20.793 14.2262C20.7888 14.8647 20.7862 15.5032 20.7841 16.1417C20.0906 16.1417 19.3971 16.1417 18.6826 16.1417C18.6826 13.5225 18.6826 10.9033 18.6826 8.2047C19.3396 8.2047 19.9966 8.2047 20.6735 8.2047C20.7009 8.69581 20.7009 8.69581 20.7288 9.19683C20.7745 9.12294 20.8201 9.04904 20.8671 8.97291C21.3704 8.22975 22.0615 7.99045 22.941 8.00146Z" fill="#FBFDFE"/>
<path d="M55.1825 6.05518C55.8578 6.05518 56.533 6.05518 57.2287 6.05518C57.2287 6.76455 57.2287 7.47392 57.2287 8.20478C58.6705 8.20478 60.1122 8.20478 61.5977 8.20478C61.5977 8.69588 61.5977 9.18699 61.5977 9.69297C60.1559 9.69297 58.7142 9.69297 57.2287 9.69297C57.2333 10.2989 57.2379 10.9048 57.2426 11.5291C57.2439 11.8143 57.2439 11.8143 57.2452 12.1053C57.247 12.2782 57.247 12.2782 57.2492 12.4512C57.25 12.5272 57.2503 12.6032 57.2504 12.6793C57.251 13.2427 57.3 13.7341 57.6159 14.2161C57.876 14.4673 58.1517 14.4576 58.4962 14.457C58.8212 14.4481 59.0491 14.3951 59.2749 14.1575C59.482 13.8848 59.5566 13.6197 59.5628 13.2833C59.5645 13.2039 59.5645 13.2039 59.5662 13.1229C59.5671 13.0661 59.568 13.0094 59.569 12.951C59.5707 12.8634 59.5707 12.8634 59.5724 12.774C59.5761 12.5875 59.5793 12.4011 59.5826 12.2146C59.585 12.0882 59.5874 11.9617 59.5898 11.8353C59.5958 11.5254 59.6012 11.2155 59.6068 10.9056C60.2638 10.9056 60.9208 10.9056 61.5977 10.9056C61.6015 11.2948 61.6048 11.684 61.6068 12.0733C61.6076 12.2055 61.6087 12.3377 61.6102 12.4699C61.6122 12.6607 61.6131 12.8516 61.6139 13.0425C61.6147 13.1008 61.6156 13.1592 61.6165 13.2193C61.6167 14.0762 61.3114 14.9142 60.7128 15.5355C60.074 16.1337 59.2378 16.3956 58.3728 16.3864C58.2896 16.3858 58.2896 16.3858 58.2048 16.3851C57.4087 16.3676 56.6442 16.1229 56.0466 15.5775C55.362 14.8378 55.1461 13.8995 55.1574 12.9194C55.1575 12.8438 55.1574 12.7682 55.1573 12.6926C55.1572 12.4903 55.1585 12.288 55.1601 12.0857C55.1615 11.8732 55.1616 11.6607 55.1619 11.4482C55.1625 11.047 55.1644 10.6459 55.1666 10.2448C55.1691 9.78757 55.1703 9.33036 55.1714 8.87314C55.1737 7.93381 55.1777 6.9945 55.1825 6.05518Z" fill="#FCFDFE"/>
<path d="M50.5024 8.0282C50.562 8.02773 50.562 8.02773 50.6227 8.02725C50.7069 8.02673 50.7911 8.02637 50.8753 8.02615C51.0016 8.02562 51.1279 8.02392 51.2543 8.02217C52.1834 8.01545 53.101 8.17766 53.7897 8.84528C54.2789 9.37559 54.4637 9.91017 54.4637 10.63C53.7884 10.63 53.1132 10.63 52.4175 10.63C52.3627 10.4481 52.308 10.2662 52.2515 10.0788C52.011 9.83017 51.7946 9.65897 51.4399 9.62268C51.2692 9.62112 51.0985 9.62009 50.9277 9.6206C50.8388 9.61926 50.8388 9.61926 50.7481 9.6179C50.3792 9.61768 50.1065 9.63787 49.8251 9.89963C49.7341 10.081 49.7383 10.2095 49.7629 10.4095C50.1709 11.0721 51.2802 11.1983 51.9764 11.3789C52.0365 11.3946 52.0965 11.4102 52.1584 11.4264C52.2123 11.4402 52.2662 11.454 52.3217 11.4683C52.4691 11.5108 52.6073 11.5643 52.7493 11.6221C52.8098 11.6385 52.8703 11.6549 52.9327 11.6718C53.5159 11.845 54.1464 12.1301 54.4637 12.6693C54.7534 13.2999 54.7734 13.9963 54.5833 14.66C54.338 15.2657 53.8435 15.7139 53.2541 15.9818C53.2153 15.9982 53.1764 16.0146 53.1364 16.0315C53.0936 16.0508 53.0507 16.07 53.0066 16.0899C51.9212 16.5353 50.3984 16.5282 49.3122 16.0943C48.5503 15.7663 47.9582 15.3145 47.5957 14.5513C47.4777 14.2409 47.4402 13.9366 47.4402 13.6063C48.1519 13.6063 48.8637 13.6063 49.597 13.6063C49.6335 13.77 49.67 13.9337 49.7076 14.1024C49.9281 14.445 50.2169 14.5839 50.5925 14.7087C51.1989 14.7648 51.9015 14.8064 52.4175 14.4331C52.5836 14.2056 52.609 14.0527 52.5834 13.7717C52.488 13.5257 52.3393 13.4316 52.115 13.3032C51.8174 13.1772 51.5099 13.119 51.1943 13.053C50.0487 12.8109 48.6823 12.479 47.9932 11.4498C47.6814 10.9357 47.7132 10.2706 47.772 9.69294C47.8311 9.47626 47.9129 9.31962 48.0485 9.14176C48.0706 9.10794 48.0927 9.07412 48.1155 9.03927C48.5287 8.47513 49.2215 8.24448 49.8735 8.09451C49.905 8.08486 49.9365 8.07521 49.969 8.06527C50.1463 8.02879 50.3221 8.02932 50.5024 8.0282Z" fill="#FCFDFE"/>
<path d="M75.4788 7.98425C75.4788 8.69362 75.4788 9.40299 75.4788 10.1339C74.8739 10.1476 74.8739 10.1476 74.6864 10.1503C74.1624 10.1678 73.7507 10.3129 73.3773 10.685C73.0989 11.067 73.0292 11.469 73.0279 11.9306C73.027 11.9992 73.027 11.9992 73.0262 12.0692C73.0245 12.2192 73.0235 12.3692 73.0226 12.5192C73.0216 12.6237 73.0205 12.7282 73.0193 12.8327C73.0165 13.1068 73.0143 13.3809 73.0123 13.655C73.0097 13.9844 73.0062 14.3137 73.003 14.6431C72.9981 15.1426 72.9942 15.6422 72.9902 16.1417C72.2967 16.1417 71.6032 16.1417 70.8887 16.1417C70.8887 13.5225 70.8887 10.9033 70.8887 8.20473C71.5457 8.20473 72.2027 8.20473 72.8796 8.20473C72.907 8.58669 72.907 8.58669 72.9349 8.97638C72.9965 8.90135 73.0581 8.82632 73.1215 8.74902C73.782 8.00659 74.505 7.98425 75.4788 7.98425Z" fill="#FBFDFE"/>
<path d="M34.7667 8.02441C35.9279 8.0271 36.8609 8.39353 37.7062 9.19727C37.8513 9.37242 37.9754 9.55428 38.0939 9.74805C38.1259 9.79709 38.1256 9.79756 38.1583 9.84766C38.5841 10.5315 38.6694 11.2807 38.6671 12.0664C38.6671 12.1044 38.6671 12.1425 38.6671 12.1816C38.6654 12.7583 38.6285 13.2816 38.4259 13.8272C38.4053 13.8864 38.3837 13.9458 38.3624 14.0068C38.2158 14.3924 38.015 14.7144 37.7619 15.0391C37.7358 15.0741 37.7096 15.1094 37.6828 15.1455C37.459 15.429 37.1804 15.6181 36.8771 15.8106C36.8378 15.8362 36.7984 15.8623 36.758 15.8887C35.8682 16.4286 34.605 16.5128 33.6007 16.2969C33.494 16.2663 33.3874 16.2334 33.2824 16.1973C33.2007 16.1701 33.2007 16.1693 33.1173 16.1416C32.1657 15.7865 31.4565 15.1127 31.008 14.209C30.5236 13.1356 30.4291 11.7311 30.7716 10.6045C31.177 9.5791 31.8105 8.77487 32.8332 8.30859C33.405 8.07129 33.9603 8.02127 34.5753 8.02539C34.6384 8.02496 34.7018 8.02485 34.7667 8.02441ZM35.5255 9.89941C35.0825 9.71244 34.52 9.64897 34.0568 9.80273C33.5307 10.0163 33.2185 10.2772 32.9718 10.793C32.6158 11.6236 32.6706 12.7195 32.9865 13.5557C33.1714 13.9548 33.4586 14.3212 33.8703 14.5C34.4175 14.6267 35.1035 14.6465 35.6291 14.4326C36.0641 14.1838 36.2864 13.8526 36.4445 13.3857C36.4599 13.3296 36.4754 13.2752 36.4904 13.2207C36.6833 12.5242 36.7081 11.6815 36.507 10.9844C36.311 10.4714 36.0154 10.1525 35.5255 9.89941Z" fill="#FCFDFE"/>
<path d="M66.3296 8.02441C66.9082 8.02567 67.435 8.08449 67.9644 8.3252C68.002 8.34198 68.0399 8.35868 68.0786 8.37598C68.3875 8.51895 68.6429 8.69591 68.8979 8.9209C68.9303 8.94417 68.9622 8.96821 68.9956 8.99219C69.5134 9.37598 69.8207 10.0306 70.0034 10.6299C70.018 10.6727 70.0333 10.7157 70.0483 10.7598C70.18 11.1771 70.1975 11.5806 70.1948 12.0137C70.1944 12.1309 70.195 12.248 70.1968 12.3652C70.2004 13.0626 70.0721 13.7173 69.7407 14.3398C69.7217 14.3764 69.7027 14.4135 69.6831 14.4512C69.2409 15.2751 68.5418 15.8598 67.6606 16.1826C66.4546 16.539 65.155 16.4564 64.0454 15.8652C63.1597 15.329 62.5693 14.5221 62.2944 13.5273C62.2834 13.4807 62.2726 13.4338 62.2612 13.3857C62.252 13.3519 62.2424 13.3181 62.2329 13.2832C61.9393 12.1265 62.1323 10.7877 62.7036 9.74805C62.8185 9.5665 62.9451 9.40925 63.0913 9.25195C63.1274 9.21102 63.1635 9.1701 63.2007 9.12793C63.6373 8.65942 64.181 8.30666 64.8052 8.14941C64.8438 8.13963 64.8826 8.1302 64.9224 8.12012C65.3254 8.02919 65.7175 8.02275 66.1294 8.02539C66.1955 8.02497 66.2615 8.02485 66.3296 8.02441ZM67.2075 9.94141C66.7042 9.6885 65.95 9.68322 65.4185 9.86621C64.8947 10.111 64.6264 10.4854 64.4185 11.0156C64.2008 11.7726 64.1652 12.9316 64.5513 13.6397C64.581 13.6845 64.6103 13.7279 64.6392 13.7715C64.6669 13.8142 64.6943 13.856 64.7212 13.8975C64.751 13.939 64.7801 13.9792 64.8091 14.0195C64.8379 14.0611 64.8661 14.1013 64.894 14.1416C65.2257 14.4555 65.5979 14.5767 66.0493 14.584C66.1045 14.5829 66.1588 14.5821 66.2124 14.5811C66.8041 14.5744 67.1843 14.4746 67.6187 14.0606C67.9852 13.5018 68.1376 12.9892 68.1362 12.3213C68.1355 12.2686 68.135 12.2172 68.1343 12.166C68.134 11.8146 68.1245 11.4733 68.0679 11.126C67.9286 10.6125 67.6458 10.2411 67.2075 9.94141Z" fill="#FCFDFE"/>
<path d="M46.8314 16.1416H44.8412C44.823 15.8506 44.8043 15.5596 44.7855 15.2598C44.732 15.3348 44.6786 15.41 44.6234 15.4873C44.228 15.9914 43.6495 16.2799 43.016 16.3623C42.0694 16.4114 41.2507 16.26 40.5102 15.6387C39.5791 14.7444 39.2127 13.5482 39.184 12.2852C39.1721 11.0238 39.4276 9.77621 40.3158 8.8252C40.8912 8.28006 41.556 8.00711 42.3422 8.01562C42.4221 8.01619 42.4225 8.01603 42.5043 8.0166C42.91 8.02568 43.256 8.08231 43.6244 8.25977C43.6673 8.27899 43.7101 8.29855 43.7543 8.31836C44.1058 8.49262 44.5511 8.78546 44.7299 9.1416C44.7481 8.10487 44.7667 7.06815 44.7855 6H46.8314V16.1416ZM44.0316 9.99121C43.3611 9.59379 42.4625 9.72066 41.9057 10.2324C41.4382 10.7664 41.3547 11.3986 41.3441 12.0781C41.3437 12.1339 41.3436 12.1881 41.3432 12.2422C41.3355 13.0022 41.5598 13.6018 42.0199 14.2129C42.3381 14.4896 42.5765 14.6056 42.9994 14.6123C43.5062 14.612 43.9287 14.5157 44.2982 14.1475C44.3323 14.0948 44.3648 14.0433 44.3978 13.9922C44.7368 13.4782 44.9157 13.0514 44.9223 12.4307C44.9217 12.3677 44.9209 12.3062 44.9203 12.2451C44.9186 11.955 44.9168 11.6659 44.8783 11.3779C44.7654 10.7916 44.5178 10.3405 44.0316 9.99121Z" fill="#FDFEFE"/>
<path d="M13.6848 8.02201C14.3738 8.01825 14.9656 8.29367 15.4748 8.75639C15.5478 8.84726 15.6214 8.93815 15.6965 9.03178C15.7148 8.75894 15.7324 8.48573 15.7512 8.20463H17.8528C17.8565 9.3387 17.8598 10.4729 17.8616 11.607C17.8624 12.1336 17.8636 12.6605 17.8655 13.1871C17.8671 13.646 17.868 14.105 17.8684 14.564C17.8686 14.807 17.8691 15.0505 17.8703 15.2935C17.8715 15.5223 17.8716 15.7512 17.8713 15.98C17.8714 16.0636 17.8717 16.1473 17.8723 16.231C17.8755 16.6694 17.862 17.0564 17.6868 17.4644C17.6622 17.5364 17.6382 17.6088 17.6145 17.6812C17.3203 18.4405 16.7909 19.0029 16.0832 19.394C16.037 19.4201 15.9902 19.4463 15.9426 19.4731C14.9771 19.9869 13.6531 20.0697 12.6057 19.7729C11.6452 19.4769 10.9121 18.9073 10.4289 18.0229C10.2054 17.5387 10.1106 17.1187 10.1106 16.5825H12.0461C12.0826 16.728 12.1189 16.874 12.1565 17.0239C12.3078 17.4209 12.5441 17.713 12.9309 17.9058C13.5841 18.1236 14.2861 18.0783 14.9026 17.7798C15.3229 17.5497 15.5526 17.2849 15.718 16.8345C15.7912 16.5272 15.7682 16.2079 15.7619 15.8941C15.7612 15.8225 15.7608 15.7501 15.76 15.6763C15.7581 15.5008 15.7546 15.3254 15.7512 15.1499C15.7303 15.1835 15.7093 15.217 15.6877 15.2515C15.3432 15.7872 14.9285 15.9999 14.3118 16.1587C13.4063 16.3379 12.4213 16.1961 11.6409 15.6998C11.0817 15.2895 10.6911 14.746 10.4426 14.1021C10.4158 14.0438 10.3882 13.9854 10.3606 13.9253C9.89784 12.8473 9.98476 11.3547 10.4045 10.2857C10.6514 9.73529 10.9587 9.29669 11.3821 8.86576C11.4106 8.83534 11.4396 8.8053 11.469 8.77397C12.0295 8.23287 12.7715 8.02993 13.5256 8.02592C13.5782 8.02478 13.6307 8.02318 13.6848 8.02201ZM15.0871 10.0943C14.394 9.64977 13.4766 9.6458 12.8762 10.2437C12.2824 10.8681 12.2817 10.8686 12.3039 12.4976C12.33 13.2104 12.5693 13.7755 13.0969 14.2681C13.4398 14.5596 13.822 14.598 14.258 14.5728C14.722 14.5244 15.0823 14.3092 15.3889 13.9644C15.8904 13.2589 15.9426 12.5153 15.8625 11.6773C15.7765 11.085 15.5773 10.4715 15.0871 10.0943Z" fill="#FCFDFE"/>
<path d="M77.1374 8.44223C78.1706 7.92472 79.6611 7.77826 80.7321 8.26645C80.7703 8.28355 80.809 8.3006 80.8483 8.31821C81.1584 8.46218 81.4202 8.63451 81.6725 8.86606C81.7062 8.89469 81.7403 8.92347 81.775 8.95297C82.5591 9.66241 82.8037 10.7722 82.8766 11.7801C82.8905 12.0946 82.8893 12.4097 82.8893 12.7245H77.4147C77.5396 13.262 77.5394 13.2626 77.7428 13.7411C77.7695 13.7931 77.7964 13.8456 77.8239 13.8993C78.0267 14.2397 78.2419 14.4594 78.6295 14.576C78.8184 14.6135 79.009 14.6108 79.2008 14.6121C79.2413 14.6133 79.2822 14.6149 79.3239 14.6161C79.6956 14.6187 79.9889 14.5254 80.276 14.2782C80.3065 14.2528 80.3374 14.2271 80.3688 14.201C80.487 14.0756 80.4869 14.0753 80.6217 13.7713H82.779C82.6207 14.5602 82.1396 15.2398 81.5016 15.7196C80.5589 16.3334 79.403 16.5369 78.2946 16.33C77.3583 16.0997 76.5915 15.7164 76.0475 14.8963C75.3377 13.6722 75.1535 12.0679 75.484 10.6981C75.7362 9.77404 76.3154 8.95058 77.1374 8.44223ZM80.069 9.91293C79.3921 9.53326 78.6788 9.49193 78.0778 10.0233C77.6985 10.4284 77.5251 10.8495 77.525 11.4012H80.7321V11.0155C80.7043 10.9323 80.7047 10.932 80.6774 10.8504C80.5501 10.4604 80.4116 10.1549 80.069 9.91293Z" fill="#FCFDFE"/>
<path d="M65.137 10.0237C65.1735 10.0419 65.21 10.0601 65.2476 10.0788C65.0651 10.2607 64.8826 10.4426 64.6946 10.63C64.6946 10.3917 64.8134 10.3057 64.9711 10.1339C65.0258 10.0975 65.0806 10.0612 65.137 10.0237Z" fill="#52A8D8"/>
<path d="M78.2992 9.85828C78.3357 9.87647 78.3722 9.89465 78.4098 9.91339C78.2456 10.0771 78.0813 10.2408 77.9121 10.4095C77.9121 10.2441 77.9121 10.2441 78.0435 10.1029C78.0914 10.0585 78.1393 10.0142 78.1886 9.96851C78.2251 9.93213 78.2616 9.89576 78.2992 9.85828Z" fill="#4EA6D7"/>
</g>
</g>
<defs>
<clipPath id="clip0_2019_46">
<rect width="73" height="14" fill="white" transform="translate(10 6)"/>
</clipPath>
</defs>
</svg>
