<svg width="103" height="26" viewBox="0 0 103 26" fill="none" xmlns="http://www.w3.org/2000/svg">
<rect width="103" height="26" rx="12" fill="#2AABEE"/>
<path fill-rule="evenodd" clip-rule="evenodd" d="M11.1687 12.0269C15.7321 10.0512 18.775 8.74867 20.2976 8.11936C24.6448 6.32254 25.5481 6.01042 26.1369 6.00011C26.2664 5.99784 26.5559 6.02973 26.7435 6.18096C26.9018 6.30866 26.9454 6.48116 26.9663 6.60223C26.9871 6.7233 27.0131 6.9991 26.9924 7.2146C26.7569 9.6743 25.7375 15.6433 25.2189 18.3983C24.9995 19.564 24.5674 19.9548 24.1492 19.9931C23.2401 20.0762 22.5498 19.3961 21.6694 18.8225C20.2916 17.9251 19.5133 17.3664 18.176 16.4907C16.6305 15.4786 17.6323 14.9223 18.5131 14.0132C18.7436 13.7753 22.7489 10.1551 22.8264 9.82668C22.8361 9.7856 22.8451 9.6325 22.7536 9.55166C22.6621 9.47081 22.527 9.49846 22.4295 9.52045C22.2913 9.55161 20.0904 10.9972 15.8266 13.8573C15.2019 14.2836 14.636 14.4913 14.129 14.4804C13.5701 14.4684 12.495 14.1664 11.6957 13.9082C10.7154 13.5915 9.93627 13.4241 10.0041 12.8863C10.0395 12.6062 10.4276 12.3197 11.1687 12.0269Z" fill="white"/>
<path d="M40.3903 17C40.3023 17 40.2303 16.972 40.1743 16.916C40.1183 16.86 40.0903 16.788 40.0903 16.7V10.484H37.9543C37.8663 10.484 37.7943 10.456 37.7383 10.4C37.6823 10.336 37.6543 10.264 37.6543 10.184V8.9C37.6543 8.812 37.6823 8.74 37.7383 8.684C37.7943 8.628 37.8663 8.6 37.9543 8.6H44.4103C44.4983 8.6 44.5703 8.628 44.6263 8.684C44.6823 8.74 44.7103 8.812 44.7103 8.9V10.184C44.7103 10.264 44.6823 10.336 44.6263 10.4C44.5703 10.456 44.4983 10.484 44.4103 10.484H42.2743V16.7C42.2743 16.788 42.2463 16.86 42.1903 16.916C42.1343 16.972 42.0623 17 41.9743 17H40.3903ZM47.4943 17.12C46.5503 17.12 45.7983 16.864 45.2383 16.352C44.6783 15.84 44.3863 15.08 44.3623 14.072C44.3623 14.016 44.3623 13.944 44.3623 13.856C44.3623 13.768 44.3623 13.7 44.3623 13.652C44.3863 13.02 44.5263 12.48 44.7823 12.032C45.0463 11.576 45.4063 11.232 45.8623 11C46.3263 10.76 46.8663 10.64 47.4823 10.64C48.1863 10.64 48.7663 10.78 49.2223 11.06C49.6863 11.34 50.0343 11.72 50.2663 12.2C50.4983 12.68 50.6143 13.228 50.6143 13.844V14.132C50.6143 14.22 50.5823 14.292 50.5182 14.348C50.4623 14.404 50.3943 14.432 50.3143 14.432H46.4743C46.4743 14.44 46.4743 14.452 46.4743 14.468C46.4743 14.484 46.4743 14.5 46.4743 14.516C46.4823 14.748 46.5223 14.96 46.5943 15.152C46.6663 15.344 46.7783 15.496 46.9303 15.608C47.0823 15.72 47.2663 15.776 47.4823 15.776C47.6423 15.776 47.7743 15.752 47.8783 15.704C47.9903 15.648 48.0823 15.588 48.1543 15.524C48.2263 15.452 48.2823 15.392 48.3223 15.344C48.3943 15.264 48.4503 15.216 48.4903 15.2C48.5383 15.176 48.6103 15.164 48.7063 15.164H50.1943C50.2743 15.164 50.3383 15.188 50.3863 15.236C50.4423 15.276 50.4663 15.336 50.4583 15.416C50.4503 15.552 50.3823 15.716 50.2543 15.908C50.1263 16.1 49.9383 16.292 49.6903 16.484C49.4503 16.668 49.1463 16.82 48.7783 16.94C48.4103 17.06 47.9823 17.12 47.4943 17.12ZM46.4743 13.244H48.5023V13.22C48.5023 12.964 48.4623 12.74 48.3823 12.548C48.3103 12.356 48.1943 12.208 48.0343 12.104C47.8823 12 47.6983 11.948 47.4823 11.948C47.2663 11.948 47.0823 12 46.9303 12.104C46.7863 12.208 46.6743 12.356 46.5943 12.548C46.5143 12.74 46.4743 12.964 46.4743 13.22V13.244ZM52.0393 17C51.9513 17 51.8793 16.972 51.8232 16.916C51.7673 16.86 51.7393 16.788 51.7393 16.7V8.78C51.7393 8.692 51.7673 8.62 51.8232 8.564C51.8793 8.508 51.9513 8.48 52.0393 8.48H53.4553C53.5433 8.48 53.6153 8.508 53.6713 8.564C53.7273 8.62 53.7553 8.692 53.7553 8.78V16.7C53.7553 16.788 53.7273 16.86 53.6713 16.916C53.6153 16.972 53.5433 17 53.4553 17H52.0393ZM58.0528 17.12C57.1088 17.12 56.3568 16.864 55.7968 16.352C55.2368 15.84 54.9448 15.08 54.9208 14.072C54.9208 14.016 54.9208 13.944 54.9208 13.856C54.9208 13.768 54.9208 13.7 54.9208 13.652C54.9448 13.02 55.0848 12.48 55.3408 12.032C55.6048 11.576 55.9648 11.232 56.4208 11C56.8848 10.76 57.4248 10.64 58.0408 10.64C58.7448 10.64 59.3248 10.78 59.7808 11.06C60.2448 11.34 60.5928 11.72 60.8248 12.2C61.0568 12.68 61.1728 13.228 61.1728 13.844V14.132C61.1728 14.22 61.1408 14.292 61.0768 14.348C61.0208 14.404 60.9528 14.432 60.8728 14.432H57.0328C57.0328 14.44 57.0328 14.452 57.0328 14.468C57.0328 14.484 57.0328 14.5 57.0328 14.516C57.0408 14.748 57.0808 14.96 57.1528 15.152C57.2248 15.344 57.3368 15.496 57.4888 15.608C57.6408 15.72 57.8248 15.776 58.0408 15.776C58.2008 15.776 58.3328 15.752 58.4368 15.704C58.5488 15.648 58.6408 15.588 58.7128 15.524C58.7848 15.452 58.8408 15.392 58.8808 15.344C58.9528 15.264 59.0088 15.216 59.0488 15.2C59.0968 15.176 59.1688 15.164 59.2648 15.164H60.7528C60.8328 15.164 60.8968 15.188 60.9448 15.236C61.0008 15.276 61.0248 15.336 61.0168 15.416C61.0088 15.552 60.9408 15.716 60.8128 15.908C60.6848 16.1 60.4968 16.292 60.2488 16.484C60.0088 16.668 59.7048 16.82 59.3368 16.94C58.9688 17.06 58.5408 17.12 58.0528 17.12ZM57.0328 13.244H59.0608V13.22C59.0608 12.964 59.0208 12.74 58.9408 12.548C58.8688 12.356 58.7528 12.208 58.5928 12.104C58.4408 12 58.2568 11.948 58.0408 11.948C57.8248 11.948 57.6408 12 57.4888 12.104C57.3448 12.208 57.2328 12.356 57.1528 12.548C57.0728 12.74 57.0328 12.964 57.0328 13.22V13.244ZM65.3578 19.64C64.7418 19.64 64.2298 19.56 63.8218 19.4C63.4218 19.24 63.1018 19.048 62.8618 18.824C62.6298 18.6 62.4618 18.376 62.3578 18.152C62.2538 17.936 62.1978 17.764 62.1898 17.636C62.1818 17.548 62.2098 17.476 62.2738 17.42C62.3378 17.364 62.4138 17.336 62.5018 17.336H64.0258C64.0978 17.336 64.1578 17.352 64.2058 17.384C64.2618 17.424 64.3058 17.488 64.3378 17.576C64.3778 17.664 64.4298 17.756 64.4938 17.852C64.5658 17.948 64.6618 18.024 64.7818 18.08C64.9098 18.144 65.0818 18.176 65.2978 18.176C65.5378 18.176 65.7378 18.136 65.8978 18.056C66.0578 17.984 66.1778 17.86 66.2578 17.684C66.3378 17.516 66.3778 17.288 66.3778 17V16.196C66.1938 16.396 65.9578 16.56 65.6698 16.688C65.3818 16.808 65.0338 16.868 64.6258 16.868C64.2178 16.868 63.8578 16.808 63.5458 16.688C63.2338 16.568 62.9738 16.388 62.7658 16.148C62.5578 15.908 62.3938 15.616 62.2738 15.272C62.1618 14.928 62.0938 14.532 62.0698 14.084C62.0618 13.876 62.0618 13.668 62.0698 13.46C62.0938 13.028 62.1618 12.64 62.2738 12.296C62.3858 11.952 62.5458 11.656 62.7538 11.408C62.9698 11.16 63.2338 10.972 63.5458 10.844C63.8578 10.708 64.2178 10.64 64.6258 10.64C65.0578 10.64 65.4258 10.724 65.7298 10.892C66.0418 11.052 66.2978 11.256 66.4978 11.504V11.06C66.4978 10.98 66.5258 10.912 66.5818 10.856C66.6378 10.792 66.7098 10.76 66.7978 10.76H68.1778C68.2658 10.76 68.3378 10.792 68.3938 10.856C68.4578 10.912 68.4898 10.98 68.4898 11.06V16.832C68.4898 17.44 68.3658 17.952 68.1178 18.368C67.8698 18.784 67.5138 19.1 67.0498 19.316C66.5858 19.532 66.0218 19.64 65.3578 19.64ZM65.2738 15.308C65.5298 15.308 65.7378 15.252 65.8978 15.14C66.0578 15.028 66.1738 14.884 66.2458 14.708C66.3258 14.532 66.3698 14.344 66.3778 14.144C66.3858 14.056 66.3898 13.932 66.3898 13.772C66.3898 13.612 66.3858 13.492 66.3778 13.412C66.3698 13.204 66.3258 13.012 66.2458 12.836C66.1738 12.66 66.0578 12.52 65.8978 12.416C65.7378 12.304 65.5298 12.248 65.2738 12.248C65.0098 12.248 64.7978 12.304 64.6378 12.416C64.4858 12.528 64.3738 12.68 64.3018 12.872C64.2378 13.064 64.1978 13.276 64.1818 13.508C64.1738 13.684 64.1738 13.864 64.1818 14.048C64.1978 14.28 64.2378 14.492 64.3018 14.684C64.3738 14.876 64.4858 15.028 64.6378 15.14C64.7978 15.252 65.0098 15.308 65.2738 15.308ZM70.2033 17C70.1153 17 70.0433 16.972 69.9873 16.916C69.9313 16.86 69.9033 16.788 69.9033 16.7V11.06C69.9033 10.98 69.9313 10.912 69.9873 10.856C70.0433 10.792 70.1153 10.76 70.2033 10.76H71.5833C71.6713 10.76 71.7433 10.792 71.7993 10.856C71.8553 10.912 71.8833 10.98 71.8833 11.06V11.54C72.0993 11.292 72.3553 11.1 72.6513 10.964C72.9553 10.828 73.2953 10.76 73.6713 10.76H74.1993C74.2793 10.76 74.3473 10.788 74.4033 10.844C74.4673 10.9 74.4993 10.972 74.4993 11.06V12.296C74.4993 12.376 74.4673 12.448 74.4033 12.512C74.3473 12.568 74.2793 12.596 74.1993 12.596H73.0353C72.7073 12.596 72.4513 12.688 72.2673 12.872C72.0913 13.048 72.0033 13.3 72.0033 13.628V16.7C72.0033 16.788 71.9713 16.86 71.9073 16.916C71.8513 16.972 71.7793 17 71.6913 17H70.2033ZM77.1191 17.12C76.6871 17.12 76.2991 17.04 75.9551 16.88C75.6191 16.712 75.3511 16.488 75.1511 16.208C74.9511 15.928 74.8511 15.612 74.8511 15.26C74.8511 14.692 75.0831 14.244 75.5471 13.916C76.0111 13.58 76.6271 13.352 77.3951 13.232L78.8951 13.004V12.836C78.8951 12.548 78.8351 12.328 78.7151 12.176C78.5951 12.024 78.3751 11.948 78.0551 11.948C77.8311 11.948 77.6471 11.992 77.5031 12.08C77.3671 12.168 77.2591 12.288 77.1791 12.44C77.1071 12.544 77.0071 12.596 76.8791 12.596H75.5351C75.4471 12.596 75.3791 12.572 75.3311 12.524C75.2831 12.468 75.2631 12.404 75.2711 12.332C75.2711 12.188 75.3231 12.024 75.4271 11.84C75.5391 11.648 75.7071 11.46 75.9311 11.276C76.1551 11.092 76.4431 10.94 76.7951 10.82C77.1471 10.7 77.5711 10.64 78.0671 10.64C78.5871 10.64 79.0311 10.7 79.3991 10.82C79.7671 10.94 80.0631 11.108 80.2871 11.324C80.5191 11.54 80.6911 11.796 80.8031 12.092C80.9151 12.38 80.9711 12.7 80.9711 13.052V16.7C80.9711 16.788 80.9391 16.86 80.8751 16.916C80.8191 16.972 80.7511 17 80.6711 17H79.2791C79.1911 17 79.1191 16.972 79.0631 16.916C79.0071 16.86 78.9791 16.788 78.9791 16.7V16.28C78.8751 16.432 78.7351 16.572 78.5591 16.7C78.3831 16.828 78.1751 16.928 77.9351 17C77.7031 17.08 77.4311 17.12 77.1191 17.12ZM77.6831 15.752C77.9151 15.752 78.1231 15.704 78.3071 15.608C78.4991 15.504 78.6471 15.348 78.7511 15.14C78.8631 14.924 78.9191 14.656 78.9191 14.336V14.168L77.8991 14.348C77.5231 14.412 77.2471 14.512 77.0711 14.648C76.9031 14.776 76.8191 14.928 76.8191 15.104C76.8191 15.24 76.8591 15.356 76.9391 15.452C77.0191 15.548 77.1231 15.624 77.2511 15.68C77.3791 15.728 77.5231 15.752 77.6831 15.752ZM82.6252 17C82.5372 17 82.4652 16.972 82.4092 16.916C82.3532 16.86 82.3252 16.788 82.3252 16.7V11.06C82.3252 10.972 82.3532 10.9 82.4092 10.844C82.4652 10.788 82.5372 10.76 82.6252 10.76H83.9332C84.0212 10.76 84.0932 10.788 84.1492 10.844C84.2052 10.9 84.2332 10.972 84.2332 11.06V11.468C84.3932 11.252 84.6172 11.064 84.9052 10.904C85.1932 10.736 85.5332 10.648 85.9252 10.64C86.8452 10.624 87.4772 10.972 87.8212 11.684C88.0052 11.38 88.2692 11.132 88.6132 10.94C88.9572 10.74 89.3332 10.64 89.7412 10.64C90.1572 10.64 90.5292 10.736 90.8572 10.928C91.1932 11.112 91.4612 11.4 91.6612 11.792C91.8612 12.176 91.9612 12.676 91.9612 13.292V16.7C91.9612 16.788 91.9292 16.86 91.8652 16.916C91.8092 16.972 91.7412 17 91.6612 17H90.2692C90.1812 17 90.1052 16.972 90.0412 16.916C89.9852 16.86 89.9572 16.788 89.9572 16.7V13.376C89.9572 13.096 89.9172 12.876 89.8372 12.716C89.7572 12.548 89.6492 12.428 89.5132 12.356C89.3772 12.284 89.2212 12.248 89.0452 12.248C88.9012 12.248 88.7572 12.284 88.6132 12.356C88.4772 12.428 88.3652 12.548 88.2772 12.716C88.1972 12.876 88.1572 13.096 88.1572 13.376V16.7C88.1572 16.788 88.1292 16.86 88.0732 16.916C88.0172 16.972 87.9452 17 87.8572 17H86.4652C86.3772 17 86.3052 16.972 86.2492 16.916C86.1932 16.86 86.1652 16.788 86.1652 16.7V13.376C86.1652 13.096 86.1212 12.876 86.0332 12.716C85.9452 12.548 85.8332 12.428 85.6972 12.356C85.5612 12.284 85.4092 12.248 85.2412 12.248C85.0972 12.248 84.9532 12.284 84.8092 12.356C84.6732 12.428 84.5612 12.548 84.4732 12.716C84.3932 12.876 84.3532 13.092 84.3532 13.364V16.7C84.3532 16.788 84.3212 16.86 84.2572 16.916C84.2012 16.972 84.1292 17 84.0412 17H82.6252Z" fill="white"/>
</svg>
